PathFileType	4	(X/Y/Z)	c:/Users/goper/Files/vsCode/490R/osim_files/C11/C11_SSWS_02.trc
DataRate	CameraRate	NumFrames	NumMarkers	Units                	OrigDataRate	OrigDataStartFrame	OrigNumFrames
120.00	120.00	4	36	mm	120.0	1084	1238
                Frame#	Time	LPSI			LASI			LTH1			LTH2			LTH3			LTH4			LLFE			LMFE			LSH1			LSH2			LSH3			LSH4			LLMA			LMMA			LCAL			LMTP			LTOE			LMTP			RPSI			RASI			RTH1			RTH2			RTH3			RTH4			RLFE			RMFE			RSH1			RSH2			RSH3			RSH4			RLMA			RMMA			RCAL			RMTP			RTOE			RMTP		
		X1	Y1	Z1	X2	Y2	Z2	X3	Y3	Z3	X4	Y4	Z4	X5	Y5	Z5	X6	Y6	Z6	X7	Y7	Z7	X8	Y8	Z8	X9	Y9	Z9	X10	Y10	Z10	X11	Y11	Z11	X12	Y12	Z12	X13	Y13	Z13	X14	Y14	Z14	X15	Y15	Z15	X16	Y16	Z16	X17	Y17	Z17	X18	Y18	Z18	X19	Y19	Z19	X20	Y20	Z20	X21	Y21	Z21	X22	Y22	Z22	X23	Y23	Z23	X24	Y24	Z24	X25	Y25	Z25	X26	Y26	Z26	X27	Y27	Z27	X28	Y28	Z28	X29	Y29	Z29	X30	Y30	Z30	X31	Y31	Z31	X32	Y32	Z32	X33	Y33	Z33	X34	Y34	Z34	X35	Y35	Z35	X36	Y36	Z36

1084	9.02500	0.00000	0.00000	0.00000	-4631.58252	1015.29199	80.69589	0.00000	0.00000	0.00000	-4934.75293	383.50296	181.19556	0.00000	0.00000	0.00000	-4916.97363	369.87781	228.17064	0.00000	0.00000	0.00000	-4501.22363	512.85156	284.53455	-4439.52881	447.34201	243.35347	-4423.44482	405.63116	227.92033	0.00000	0.00000	0.00000	-4441.72168	376.04672	262.92279	-4367.95605	148.09961	136.55310	-4466.98828	142.37636	119.35827	-4367.12793	119.19941	50.76654	-4377.79980	69.29894	237.16110	-4469.88086	67.65977	263.14703	-4494.07080	59.24058	212.38918	-4718.68311	1029.46338	89.41167	-4801.40527	987.58710	250.16623	-4880.77686	640.74689	203.09662	-4879.24854	597.62982	211.38821	-4864.78711	645.32764	264.14145	-4866.77637	602.36090	262.25861	0.00000	0.00000	0.00000	-4610.99658	500.64645	258.86993	-1206.52283	734.97559	2771.06738	-1196.39880	735.80005	2720.91626	-1148.62781	737.37122	2784.85425	0.00000	0.00000	0.00000	0.00000	0.00000	0.00000	-4966.24902	482.02423	245.14394	-4872.09424	518.99054	243.99199	0.00000	0.00000	0.00000	-1135.02905	734.57751	2742.01172	0.00000	0.00000	0.00000
1085	9.03333	0.00000	0.00000	0.00000	-4639.63623	1016.75342	78.78539	0.00000	0.00000	0.00000	-4937.05225	383.40222	180.05220	0.00000	0.00000	0.00000	-4919.55127	370.05026	227.15958	0.00000	0.00000	0.00000	-4505.40088	514.10205	280.10941	-4445.70508	449.08746	236.37802	-4430.02881	407.07220	220.65210	0.00000	0.00000	0.00000	-4446.88965	376.91318	257.16895	0.00000	0.00000	0.00000	-4477.14990	142.56670	116.81267	-4381.11084	120.07092	42.77110	-4379.08984	72.32838	229.28308	-4470.10986	69.86168	261.75089	-4496.83936	59.22395	212.09363	-4726.16895	1030.77148	89.44147	-4805.05908	988.74414	252.08084	-4885.06201	641.70996	204.84135	-4883.28369	598.61279	212.93018	-4867.38867	646.01007	265.44501	-4869.39746	603.09747	263.44498	0.00000	0.00000	0.00000	-4616.51221	501.70889	259.42358	-1206.52551	734.95471	2771.05957	-1196.40771	735.80872	2720.91553	-1148.62122	737.36420	2784.85620	0.00000	0.00000	0.00000	0.00000	0.00000	0.00000	-4968.88330	482.15509	244.17345	-4875.23926	519.44659	243.48618	0.00000	0.00000	0.00000	-1135.07483	734.56354	2741.98853	0.00000	0.00000	0.00000
1086	9.04167	0.00000	0.00000	0.00000	-4647.53711	1018.13953	76.89069	0.00000	0.00000	0.00000	-4939.34668	383.18887	179.35489	0.00000	0.00000	0.00000	-4921.68994	369.95728	226.47548	0.00000	0.00000	0.00000	-4509.34033	515.19141	275.26746	-4452.09570	450.58441	228.92455	-4437.03223	408.58017	212.76259	0.00000	0.00000	0.00000	-4467.41406	374.46201	247.68948	-4385.80664	151.75960	118.56828	-4487.83301	142.34822	114.41044	-4395.74219	120.29877	35.17899	-4381.28516	75.81185	221.03375	-4470.13672	71.23541	259.70084	-4499.81250	58.91302	211.77991	-4733.85010	1032.10901	89.62197	-4808.34131	989.79840	254.16629	-4888.88037	642.33307	206.38573	-4886.77197	599.18652	214.13605	-4869.61523	646.30823	266.48190	-4871.61279	603.42139	264.30515	0.00000	0.00000	0.00000	-4621.82520	502.87985	259.77115	-1206.59583	734.95831	2771.09277	-1196.53320	735.77673	2720.93726	-1148.71912	737.34064	2784.88403	0.00000	0.00000	0.00000	0.00000	0.00000	0.00000	-4971.37598	482.12250	243.44347	-4877.93750	519.70038	243.04433	0.00000	0.00000	0.00000	-1135.15601	734.55219	2742.01782	0.00000	0.00000	0.00000
1087	9.05000	0.00000	0.00000	0.00000	-4655.74023	1019.54742	75.08832	0.00000	0.00000	0.00000	-4941.44727	382.68503	179.26530	0.00000	0.00000	0.00000	-4923.30029	369.68387	226.26743	0.00000	0.00000	0.00000	0.00000	0.00000	0.00000	-4458.66504	451.90042	220.99840	-4444.23438	409.74963	204.40353	0.00000	0.00000	0.00000	0.00000	0.00000	0.00000	-4395.69873	153.13188	109.60466	-4498.98340	141.80193	112.20936	-4424.17871	125.36218	33.42227	-4384.57812	79.66128	212.81165	-4470.63916	72.66946	257.56174	-4502.99561	58.48542	211.47296	-4741.61621	1033.32642	89.98356	-4811.38574	990.70563	256.36731	-4892.36475	642.65778	207.62503	-4889.90918	599.48480	215.01996	-4871.66699	646.21680	267.26843	-4873.50732	603.34924	264.80069	0.00000	0.00000	0.00000	-4626.90820	504.03372	259.77563	-1206.64075	734.95526	2771.10327	-1196.58093	735.75787	2720.92456	-1148.73743	737.36212	2784.86108	0.00000	0.00000	0.00000	0.00000	0.00000	0.00000	-4973.55371	481.95410	243.17900	-4880.30566	519.92188	242.68506	0.00000	0.00000	0.00000	-1135.22339	734.51666	2741.99707	0.00000	0.00000	0.00000
